<?xml version="1.0" encoding="UTF-8"?><svg id="Layer_1" xmlns="http://www.w3.org/2000/svg" xmlns:xlink="http://www.w3.org/1999/xlink" viewBox="0 0 222.87 49.95"><defs><style>.cls-1{mask:url(#mask);}.cls-2{mask:url(#mask-8-2);}.cls-3{mask:url(#mask-2-2);}.cls-4{mask:url(#mask-6-2);}.cls-5{mask:url(#mask-4-2);}.cls-6{mask:url(#mask-10-7);}.cls-7{fill:#e20714;}.cls-7,.cls-8,.cls-9,.cls-10{stroke-width:0px;}.cls-7,.cls-8,.cls-10{fill-rule:evenodd;}.cls-8{fill:#fff;}.cls-11{mask:url(#mask-3);}.cls-12{mask:url(#mask-5);}.cls-13{mask:url(#mask-1);}.cls-14{mask:url(#mask-7);}.cls-15{mask:url(#mask-9);}</style><mask id="mask" x=".11" y="0" width="222.76" height="37.82" maskUnits="userSpaceOnUse"><g id="mask-2"><polygon id="path-1" class="cls-8" points=".11 0 222.87 0 222.87 37.82 .11 37.82 .11 0"/></g></mask><mask id="mask-1" x="0" y="44.09" width="6.66" height="5.85" maskUnits="userSpaceOnUse"><g id="mask-4"><polygon id="path-3" class="cls-8" points="0 44.09 6.66 44.09 6.66 49.95 0 49.95 0 44.09"/></g></mask><mask id="mask-2-2" x="98.11" y="44.09" width="6.66" height="5.85" maskUnits="userSpaceOnUse"><g id="mask-6"><polygon id="path-5" class="cls-8" points="98.11 44.09 104.77 44.09 104.77 49.95 98.11 49.95 98.11 44.09"/></g></mask><mask id="mask-3" x="113.12" y="44.09" width="7.85" height="5.85" maskUnits="userSpaceOnUse"><g id="mask-8"><polygon id="path-7" class="cls-8" points="113.12 44.09 120.96 44.09 120.96 49.95 113.12 49.95 113.12 44.09"/></g></mask><mask id="mask-4-2" x="0" y="-.05" width="223" height="50" maskUnits="userSpaceOnUse"><g id="mask-10"><polygon id="path-9" class="cls-8" points="0 49.95 223 49.95 223 -.05 0 -.05 0 49.95"/></g></mask><mask id="mask-5" x="0" y="-.05" width="223" height="50" maskUnits="userSpaceOnUse"><g id="mask-10-2"><polygon id="path-9-2" class="cls-8" points="0 49.95 223 49.95 223 -.05 0 -.05 0 49.95"/></g></mask><mask id="mask-6-2" x="0" y="-.05" width="223" height="50" maskUnits="userSpaceOnUse"><g id="mask-10-3"><polygon id="path-9-3" class="cls-8" points="0 49.95 223 49.95 223 -.05 0 -.05 0 49.95"/></g></mask><mask id="mask-7" x="0" y="-.05" width="223" height="50" maskUnits="userSpaceOnUse"><g id="mask-10-4"><polygon id="path-9-4" class="cls-8" points="0 49.95 223 49.95 223 -.05 0 -.05 0 49.95"/></g></mask><mask id="mask-8-2" x="0" y="-.05" width="223" height="50" maskUnits="userSpaceOnUse"><g id="mask-10-5"><polygon id="path-9-5" class="cls-8" points="0 49.95 223 49.95 223 -.05 0 -.05 0 49.95"/></g></mask><mask id="mask-9" x="0" y="-.05" width="223" height="50" maskUnits="userSpaceOnUse"><g id="mask-10-6"><polygon id="path-9-6" class="cls-8" points="0 49.95 223 49.95 223 -.05 0 -.05 0 49.95"/></g></mask><mask id="mask-10-7" x="0" y="-.05" width="223" height="50" maskUnits="userSpaceOnUse"><g id="mask-10-8"><polygon id="path-9-7" class="cls-8" points="0 49.95 223 49.95 223 -.05 0 -.05 0 49.95"/></g></mask></defs><path id="Fill-1" class="cls-9" d="m186,25.5v6.45h-17.21c-4.26,0-7.79-1.21-10.59-3.62-2.8-2.41-4.2-5.45-4.2-9.1s1.38-6.61,4.15-8.88c2.77-2.26,6.31-3.4,10.64-3.4h17.21l-4.9,6.48h-12.31c-2.09,0-3.81.57-5.17,1.72-1.36,1.14-2.04,2.61-2.04,4.39s.68,3.19,2.04,4.3c1.36,1.11,3.08,1.66,5.17,1.66h17.21Z"/><polygon id="Fill-3" class="cls-9" points="148.91 6.95 130.5 6.95 119 6.95 123.68 13.43 132.49 13.43 135.81 13.43 135.81 31.95 143.59 31.95 143.59 13.43 143.59 13.43 147.98 13.43 153.33 13.43 158 6.95 148.91 6.95"/><g id="Group-7"><g class="cls-1"><polygon id="Fill-5" class="cls-7" points="219.66 34.58 54.47 34.58 39.02 18.88 54.41 3.22 219.66 3.22 222.87 0 219.66 0 48.63 0 48.63 0 47.15 0 32.24 15.35 17.34 0 15.32 0 15.32 0 3.33 0 .11 0 3.33 3.22 10.07 3.22 25.46 18.92 10.02 34.58 3.33 34.58 .11 37.8 3.33 37.8 15.3 37.8 15.3 37.79 17.2 37.79 32.24 22.45 47.28 37.82 57.66 37.82 57.63 37.8 219.66 37.8 222.87 37.8 219.66 34.59 219.66 34.58"/></g></g><g id="Group-10"><g class="cls-13"><path id="Fill-8" class="cls-10" d="m1.63,47.98v.1c0,.47.2.55.76.55h2.05c.39,0,.56-.13.56-.47,0-.42-.26-.48-.78-.49l-2.56-.09c-1.24-.04-1.63-.39-1.63-1.7,0-.62.1-1.04.37-1.34.39-.4.98-.44,1.83-.44h2.49c1.21,0,1.74.43,1.74,1.53,0,.09,0,.2-.01.31h-1.57v-.02c0-.38-.18-.57-.54-.57h-1.88c-.51,0-.77.05-.77.45,0,.35.19.46.64.47l2.68.07c1.22.03,1.66.52,1.66,1.85,0,.72-.12,1.15-.6,1.48-.33.23-.87.28-1.65.28h-2.17c-1.65,0-2.24-.27-2.24-1.52,0-.06,0-.22.02-.46h1.61Z"/></g></g><path id="Fill-11" class="cls-10" d="m20.05,47.5l-1.05-2.12-1.03,2.12h2.09Zm-5.05,2.44l2.97-6h2.12l2.92,6h-1.82l-.52-1h-3.31l-.53,1h-1.81Z"/><polygon id="Fill-13" class="cls-10" points="31.68 45.41 31.68 46.48 35.75 46.48 35.75 47.93 31.68 47.93 31.68 49.95 30 49.95 30 43.95 36 43.95 36 45.41 31.68 45.41"/><polygon id="Fill-15" class="cls-10" points="45.66 45.41 45.66 46.32 49.69 46.32 49.69 47.58 45.66 47.58 45.66 48.5 50 48.5 50 49.95 44 49.95 44 43.95 49.93 43.95 49.93 45.41 45.66 45.41"/><polygon id="Fill-17" class="cls-10" points="60.2 49.95 60.2 45.42 58 45.42 58 43.95 64 43.95 64 45.42 61.8 45.42 61.8 49.95 60.2 49.95"/><polygon id="Fill-19" class="cls-10" points="75.13 49.95 75.13 47.79 72 43.95 74.13 43.95 76 46.33 77.95 43.95 80 43.95 76.86 47.79 76.86 49.95 75.13 49.95"/><g id="Group-23"><g class="cls-3"><path id="Fill-21" class="cls-10" d="m99.74,47.98v.1c0,.47.2.55.76.55h2.05c.39,0,.56-.13.56-.47,0-.42-.26-.48-.78-.49l-2.56-.09c-1.24-.04-1.63-.39-1.63-1.7,0-.62.1-1.04.37-1.34.39-.4.98-.44,1.83-.44h2.49c1.21,0,1.74.43,1.74,1.53,0,.09,0,.2-.01.31h-1.57v-.02c0-.38-.18-.57-.54-.57h-1.88c-.51,0-.77.05-.77.45,0,.35.19.46.64.47l2.68.07c1.22.03,1.66.52,1.66,1.85,0,.72-.12,1.15-.6,1.48-.33.23-.87.28-1.65.28h-2.17c-1.65,0-2.24-.27-2.24-1.52,0-.06,0-.22.02-.46h1.61Z"/></g></g><g id="Group-26"><g class="cls-11"><path id="Fill-24" class="cls-10" d="m117.61,48.52c1.13,0,1.56-.16,1.56-1.09v-.81c0-.93-.43-1.09-1.56-1.09h-1.13c-1.15,0-1.56.16-1.56,1.12v.79c0,.9.44,1.08,1.56,1.08h1.12Zm-3.86,1.03c-.47-.35-.63-.87-.63-1.7v-1.56c0-.88.15-1.45.63-1.8.47-.35,1.19-.4,2.25-.4h2.08c1.06,0,1.8.06,2.26.4.44.33.62.88.62,1.73v1.59c0,.85-.18,1.39-.62,1.73-.48.35-1.2.4-2.26.4h-2.07c-1.04,0-1.76-.04-2.26-.4h0Z"/></g></g><polygon id="Fill-27" class="cls-10" points="134 48.49 134 49.95 129 49.95 129 43.95 130.57 43.95 130.57 48.49 134 48.49"/><path id="Fill-29" class="cls-10" d="m143.71,43.95v3.51c0,.87.32,1.01,1.38,1.01h.97c.88,0,1.21-.17,1.21-1.01v-3.51h1.72v4.08c0,1.47-.72,1.92-2.38,1.92h-1.92c-1.99,0-2.7-.43-2.7-1.92v-4.08h1.72Z"/><polygon id="Fill-31" class="cls-10" points="159.2 49.95 159.2 45.42 157 45.42 157 43.95 163 43.95 163 45.42 160.8 45.42 160.8 49.95 159.2 49.95"/><g class="cls-5"><polygon id="Fill-33" class="cls-10" points="171 49.95 173 49.95 173 43.95 171 43.95 171 49.95"/></g><g class="cls-12"><path id="Fill-35" class="cls-10" d="m185.58,48.48c1.15,0,1.59-.17,1.59-1.12v-.83c0-.95-.44-1.12-1.59-1.12h-1.16c-1.17,0-1.59.16-1.59,1.15v.81c0,.93.45,1.1,1.6,1.1h1.15Zm-3.94,1.06c-.48-.35-.64-.89-.64-1.74v-1.59c0-.9.15-1.48.64-1.84.48-.35,1.21-.41,2.3-.41h2.12c1.08,0,1.83.06,2.3.41.45.34.64.9.64,1.77v1.63c0,.87-.18,1.43-.64,1.77-.49.36-1.23.41-2.3.41h-2.12c-1.06,0-1.8-.04-2.3-.41h0Z"/></g><g class="cls-4"><polygon id="Fill-36" class="cls-10" points="202.35 49.95 198.81 45.58 198.81 49.95 197 49.95 197 43.95 199.68 43.95 203.2 48.35 203.2 43.95 205 43.95 205 49.95 202.35 49.95"/></g><g class="cls-14"><path id="Fill-37" class="cls-10" d="m214.71,47.93v.1c0,.48.21.56.8.56h2.15c.41,0,.59-.13.59-.48,0-.43-.27-.49-.82-.51l-2.69-.09c-1.3-.04-1.72-.4-1.72-1.75,0-.64.11-1.07.39-1.37.41-.41,1.03-.45,1.93-.45h2.61c1.27,0,1.83.44,1.83,1.57,0,.1,0,.21-.02.32h-1.65v-.02c0-.39-.19-.58-.56-.58h-1.97c-.53,0-.81.05-.81.46,0,.36.2.47.67.48l2.81.07c1.29.03,1.75.53,1.75,1.9,0,.74-.13,1.18-.63,1.51-.35.23-.92.28-1.73.28h-2.28c-1.73,0-2.35-.27-2.35-1.55,0-.06,0-.23.02-.47h1.69Z"/></g><g class="cls-2"><path id="Fill-38" class="cls-9" d="m112.57,16.53l3.67,5.14h-7.37l3.7-5.14Zm11,15.42h9.43l-15.41-22.16c-.52-.76-1.21-1.41-2.05-1.94-.96-.6-1.9-.9-2.84-.9s-1.86.3-2.84.9c-.89.55-1.58,1.2-2.08,1.94l-15.79,22.16h9.46l3.7-5.14h14.74l3.67,5.14Z"/></g><g class="cls-15"><path id="Fill-39" class="cls-9" d="m98.47,6.22l-.09.09-8.94,12.65c-.83,1.17-1.54,1.48-2.03,1.48-.59,0-1.11-.27-1.58-.82l-4.82-7.78.04-.02-2.23-3.63c-.42-.66-1.01-1.2-1.79-1.62-.71-.39-1.46-.59-2.24-.62-.78.03-1.53.23-2.24.62-.77.42-1.37.96-1.79,1.62l-2.23,3.63.04.02-4.82,7.78c-.46.55-.99.82-1.58.82-.49,0-1.2-.31-2.03-1.48l-7.21-10.2-4.96,5.11,10.47,14.85c1.81,2.55,3.38,3.23,4.44,3.23,1.64,0,3.06-.98,4.27-2.95l7.63-12.62,7.63,12.62c1.2,1.97,2.62,2.95,4.27,2.95,1.06,0,2.63-.68,4.44-3.23l15.86-22.5h-8.53Z"/></g><g class="cls-6"><polygon id="Fill-40" class="cls-9" points="212.36 6.95 212.36 16.14 212.36 16.87 197.67 16.87 197.67 16.14 197.67 6.95 190 6.95 190 31.95 197.67 31.95 197.67 28.2 197.67 22.62 197.67 22.02 212.36 22.02 212.36 22.62 212.36 28.2 212.36 31.95 220 31.95 220 6.95 212.36 6.95"/></g></svg>