<svg width="399" height="40" viewBox="0 0 399 40" fill="none" xmlns="http://www.w3.org/2000/svg">
<path d="M53.2783 -4.69955e-06V39.4227H36.2703L12.0525 12.332V39.4227H0V-4.69955e-06H15.8263L41.2823 28.44V-4.69955e-06H53.2783Z" fill="black"/>
<path d="M69.7663 29.5667H119.188L108.738 39.3667L57.7129 39.4227V-1.71924e-06H108.738L119.188 9.85467H69.7663V15.3187H107.725V24.104H69.7663V29.5667Z" fill="black"/>
<path d="M150.738 19.7107L172.084 39.4227H155.864L142.629 27.2013L129.394 39.4227H113.174L134.518 19.7107L113.174 -1.71924e-06H129.394L142.629 12.2213L155.864 -1.71924e-06H172.084L150.738 19.7107Z" fill="black"/>
<path d="M231.824 8.78533H210.197V39.4227H198.145V8.78533H166.845L176.518 -1.71924e-06H231.824V8.78533Z" fill="black"/>
<path d="M301.626 29.5667H340.6V39.3667L289.574 39.4227V-1.71924e-06H340.6V9.85467H301.626V15.3187H339.586V24.104H301.626V29.5667Z" fill="#68CEF6"/>
<path d="M398.372 -1.71924e-06V39.4227H381.362L357.145 12.332V39.4227H345.094V-1.71924e-06H360.92L386.374 28.44V-1.71924e-06H398.372Z" fill="#68CEF6"/>
<path d="M285.14 39.4227H273.26V15.3587H285.14V39.4227Z" fill="#68CEF6"/>
<path d="M245.996 15.652V23.78C245.996 26.9814 248.59 29.576 251.792 29.576H285.149V39.4254H246.488C239.653 39.4254 234.112 33.8853 234.112 27.0493V12.3827C234.112 5.54801 239.653 0.00668773 246.488 0.00668773H285.149V9.85602H251.792C248.59 9.85602 245.996 12.4507 245.996 15.652Z" fill="#68CEF6"/>
<path d="M255.762 15.3587H285.14V24.0627H255.762V15.3587Z" fill="#68CEF6"/>
</svg>
